<svg xmlns="http://www.w3.org/2000/svg" version="1.1" xmlns:xlink="http://www.w3.org/1999/xlink" xmlns:svgjs="http://svgjs.com/svgjs" width="1440" height="554" preserveAspectRatio="none" viewBox="0 0 1440 554"><g mask="url(&quot;#SvgjsMask2150&quot;)" fill="none"><rect width="1440" height="554" x="0" y="0" fill="url(#SvgjsLinearGradient2151)"></rect><path d="M370.563,645.765C425.804,643.453,474.193,608.832,498.985,559.413C521.477,514.58,509.44,463.003,483.911,419.827C458.932,377.582,419.52,345.656,370.563,342.222C314.803,338.31,256.293,354.838,225.86,401.724C192.925,452.465,191.211,518.97,222.064,571.004C252.359,622.096,311.217,648.249,370.563,645.765" fill="rgba(28, 83, 142, 0.4)" class="triangle-float1"></path><path d="M1186.1312931928883 487.841133589533L1187.2267928378576 425.0800009627251 1092.537344075161 454.81731780867494z" fill="rgba(28, 83, 142, 0.4)" class="triangle-float2"></path><path d="M1309.4070325053835 347.0058094351556L1362.9477745299348 250.41575397019744 1266.3577190649767 196.87501194564618 1212.8169770404254 293.4650674106043z" fill="rgba(28, 83, 142, 0.4)" class="triangle-float1"></path><path d="M592.1805841943121 359.7005034042128L566.0251608676649 300.9544607755308 490.9838085879655 369.5606170798428z" fill="rgba(28, 83, 142, 0.4)" class="triangle-float2"></path><path d="M10.109157675121335 456.9157029514918L20.591012590365285 606.8132118456722 170.48852148454566 596.3313569304282 160.0066665693017 446.43384803624787z" fill="rgba(28, 83, 142, 0.4)" class="triangle-float1"></path><path d="M1263.2035516549304 200.84981514320364L1209.4728168483946 182.34883946696925 1208.5867207373108 272.19542951489007z" fill="rgba(28, 83, 142, 0.4)" class="triangle-float3"></path></g><defs><mask id="SvgjsMask2150"><rect width="1440" height="554" fill="#ffffff"></rect></mask><linearGradient x1="15.38%" y1="-39.98%" x2="84.62%" y2="139.98%" gradientUnits="userSpaceOnUse" id="SvgjsLinearGradient2151"><stop stop-color="rgba(14, 42, 71, 1)" offset="0"></stop><stop stop-color="rgba(0, 8, 87, 1)" offset="0"></stop></linearGradient><style>
            @keyframes float1 {
                0%{transform: translate(0, 0)}
                50%{transform: translate(-10px, 0)}
                100%{transform: translate(0, 0)}
            }

            .triangle-float1 {
                animation: float1 5s infinite;
            }

            @keyframes float2 {
                0%{transform: translate(0, 0)}
                50%{transform: translate(-5px, -5px)}
                100%{transform: translate(0, 0)}
            }

            .triangle-float2 {
                animation: float2 4s infinite;
            }

            @keyframes float3 {
                0%{transform: translate(0, 0)}
                50%{transform: translate(0, -10px)}
                100%{transform: translate(0, 0)}
            }

            .triangle-float3 {
                animation: float3 6s infinite;
            }
        </style></defs></svg>